<svg version="1.1" xmlns="http://www.w3.org/2000/svg" xmlns:xlink="http://www.w3.org/1999/xlink" width="825" height="622" viewBox="0,0,825,622"><g transform="translate(149.5,62.75)"><g stroke-miterlimit="10"><g fill="#ff0000" stroke="#000000" stroke-width="0"><path d="M105.5,212.25c0,12.15026 -9.62588,22 -21.5,22c-11.87412,0 -21.5,-9.84974 -21.5,-22c0,-12.15026 9.62588,-22 21.5,-22c11.87412,0 21.5,9.84974 21.5,22z"/><path d="M81.5,209.25c0,14.91169 12.75988,27 28.5,27c15.74012,0 28.5,-12.08831 28.5,-27c0,-14.91169 -12.75988,-27 -28.5,-27c-15.74012,0 -28.5,12.08831 -28.5,27z"/><path d="M101.5,215.61459c0,12.50119 11.86445,22.63541 26.5,22.63541c14.63555,0 26.5,-10.13422 26.5,-22.63541c0,-12.5012 -11.86445,-22.63542 -26.5,-22.63542c-14.63555,0 -26.5,10.13422 -26.5,22.63542z"/><path d="M78.47369,234.31508l2.1962,-28.91672l49.85642,3.78656l-2.1962,28.91672z"/></g><path d="M-141.5,558.25v-620h816v620z" fill-opacity="0.27451" fill="#000eff" stroke="#000000" stroke-width="2"/><path d="M-149.5,451.5v-123h779v123z" fill="#000000" stroke="none" stroke-width="0"/><path d="M217.5,346v-196h65v196z" fill="#000000" stroke="none" stroke-width="0"/><path d="M280.5,115.25v-4h167v4z" fill="#000000" stroke="none" stroke-width="0"/><path d="M53.5,72.25v-4h167v4z" fill="#000000" stroke="none" stroke-width="0"/><path d="M76.5,184.32784v-2.53892h106v2.53892z" fill="#000000" stroke="none" stroke-width="0"/><path d="M300.5,247.25v-4h167v4z" fill="#000000" stroke="none" stroke-width="0"/><text transform="translate(236.5,299.25) scale(0.5,0.5)" font-size="40" xml:space="preserve" fill="#000000" stroke="none" stroke-width="1" font-family="Sans Serif" font-weight="normal" text-anchor="start"><tspan x="0" dy="0">⬆️</tspan></text><text transform="translate(237.5,227.25) scale(0.5,0.5)" font-size="40" xml:space="preserve" fill="#000000" stroke="none" stroke-width="1" font-family="Sans Serif" font-weight="normal" text-anchor="start"><tspan x="0" dy="0">⬆️</tspan></text><g fill="#ff0000" stroke="#000000" stroke-width="0"><path d="M57.5,35.25c0,12.15026 -9.62588,22 -21.5,22c-11.87412,0 -21.5,-9.84974 -21.5,-22c0,-12.15026 9.62588,-22 21.5,-22c11.87412,0 21.5,9.84974 21.5,22z"/><path d="M33.5,32.25c0,14.91169 12.75988,27 28.5,27c15.74012,0 28.5,-12.08831 28.5,-27c0,-14.91169 -12.75988,-27 -28.5,-27c-15.74012,0 -28.5,12.08831 -28.5,27z"/><path d="M53.5,38.61458c0,12.5012 11.86445,22.63542 26.5,22.63542c14.63555,0 26.5,-10.13422 26.5,-22.63542c0,-12.5012 -11.86445,-22.63542 -26.5,-22.63542c-14.63555,0 -26.5,10.13422 -26.5,22.63542z"/><path d="M30.47369,57.31508l2.19621,-28.91672l49.85641,3.78656l-2.19621,28.91672z"/></g><g fill="#ff0000" stroke="#000000" stroke-width="0"><path d="M421.5,35.25c0,12.15026 -9.62588,22 -21.5,22c-11.87412,0 -21.5,-9.84974 -21.5,-22c0,-12.15026 9.62588,-22 21.5,-22c11.87412,0 21.5,9.84974 21.5,22z"/><path d="M397.5,32.25c0,14.91169 12.75988,27 28.5,27c15.74012,0 28.5,-12.08831 28.5,-27c0,-14.91169 -12.75988,-27 -28.5,-27c-15.74012,0 -28.5,12.08831 -28.5,27z"/><path d="M417.5,38.61459c0,12.50119 11.86446,22.63541 26.5,22.63541c14.63554,0 26.5,-10.13422 26.5,-22.63541c0,-12.5012 -11.86446,-22.63542 -26.5,-22.63542c-14.63554,0 -26.5,10.13422 -26.5,22.63542z"/><path d="M394.47369,57.31508l2.1962,-28.91672l49.85641,3.78656l-2.1962,28.91672z"/></g></g></g></svg>