<svg version="1.1" xmlns="http://www.w3.org/2000/svg" xmlns:xlink="http://www.w3.org/1999/xlink" width="456" height="233" viewBox="0,0,456,233"><g transform="translate(-14.5,-5.25)"><g fill="#ff0000" stroke="#000000" stroke-width="0" stroke-miterlimit="10"><g><path d="M104.5,212.25c0,12.15026 -9.62588,22 -21.5,22c-11.87412,0 -21.5,-9.84974 -21.5,-22c0,-12.15026 9.62588,-22 21.5,-22c11.87412,0 21.5,9.84974 21.5,22z"/><path d="M109,182.25c15.74012,0 28.5,12.08831 28.5,27c0,14.91169 -12.75988,27 -28.5,27c-15.74012,0 -28.5,-12.08831 -28.5,-27c0,-14.91169 12.75988,-27 28.5,-27z"/><path d="M127,192.97917c14.63555,0 26.5,10.13422 26.5,22.63542c0,12.50119 -11.86445,22.63541 -26.5,22.63541c-14.63555,0 -26.5,-10.13422 -26.5,-22.63541c0,-12.5012 11.86445,-22.63542 26.5,-22.63542z"/><path d="M77.47369,234.31508l2.1962,-28.91672l49.85642,3.78656l-2.1962,28.91672z"/></g><g><path d="M57.5,35.25c0,12.15026 -9.62588,22 -21.5,22c-11.87412,0 -21.5,-9.84974 -21.5,-22c0,-12.15026 9.62588,-22 21.5,-22c11.87412,0 21.5,9.84974 21.5,22z"/><path d="M62,5.25c15.74012,0 28.5,12.08831 28.5,27c0,14.91169 -12.75988,27 -28.5,27c-15.74012,0 -28.5,-12.08831 -28.5,-27c0,-14.91169 12.75988,-27 28.5,-27z"/><path d="M80,15.97916c14.63555,0 26.5,10.13422 26.5,22.63542c0,12.5012 -11.86445,22.63542 -26.5,22.63542c-14.63555,0 -26.5,-10.13422 -26.5,-22.63542c0,-12.5012 11.86445,-22.63542 26.5,-22.63542z"/><path d="M30.47369,57.31508l2.19621,-28.91672l49.85641,3.78656l-2.19621,28.91672z"/></g><g><path d="M421.5,35.25c0,12.15026 -9.62588,22 -21.5,22c-11.87412,0 -21.5,-9.84974 -21.5,-22c0,-12.15026 9.62588,-22 21.5,-22c11.87412,0 21.5,9.84974 21.5,22z"/><path d="M426,5.25c15.74012,0 28.5,12.08831 28.5,27c0,14.91169 -12.75988,27 -28.5,27c-15.74012,0 -28.5,-12.08831 -28.5,-27c0,-14.91169 12.75988,-27 28.5,-27z"/><path d="M444,15.97917c14.63554,0 26.5,10.13422 26.5,22.63542c0,12.50119 -11.86446,22.63541 -26.5,22.63541c-14.63554,0 -26.5,-10.13422 -26.5,-22.63541c0,-12.5012 11.86446,-22.63542 26.5,-22.63542z"/><path d="M394.47369,57.31508l2.1962,-28.91672l49.85641,3.78656l-2.1962,28.91672z"/></g></g></g></svg>