<svg version="1.1" xmlns="http://www.w3.org/2000/svg" xmlns:xlink="http://www.w3.org/1999/xlink" width="32" height="31" viewBox="0,0,32,31"><g transform="translate(-224,-164.5)"><g data-paper-data="{&quot;isPaintingLayer&quot;:true}" fill-rule="nonzero" stroke-linecap="butt" stroke-linejoin="miter" stroke-miterlimit="10" stroke-dasharray="" stroke-dashoffset="0" style="mix-blend-mode: normal"><path d="M255,180c0,8.00813 -6.71573,14.5 -15,14.5c-8.28427,0 -15,-6.49187 -15,-14.5c0,-8.00813 6.71573,-14.5 15,-14.5c8.28427,0 15,6.49187 15,14.5z" fill="#000000" stroke="#000000" stroke-width="2"/><path d="M234.625,181.5c-1.25,0 -1.25,-1.25 -1.25,-1.25v-0.5c0.00536,-2.83238 -0.25,-5.6493 -0.25,-8.5c0,0 0,-1.25 1.25,-1.25c1.25,0 1.25,1.25 1.25,1.25c0,2.85457 0.24515,5.66217 0.25,8.5v0.5c0,0 0,1.25 -1.25,1.25z" fill="#ffffff" stroke="none" stroke-width="0.5"/><path d="M242.625,178.5c-1.25,0 -1.25,-1.25 -1.25,-1.25c0,-1.75 0,-4 0,-5.75c0,0 0,-1.25 1.25,-1.25c1.25,0 1.25,1.25 1.25,1.25c0,1.75 0,3.5 0,5.25v0.5c0,0 0,1.25 -1.25,1.25z" fill="#ffffff" stroke="none" stroke-width="0.5"/><path d="M249.74304,186.94099c0.55901,1.11803 -0.55902,1.67705 -0.55902,1.67705l-0.88224,0.3694c-3.54808,0.50073 -7.37171,0.50759 -11.00057,0.51096c0.04751,0.51433 0.07058,0.96168 0.0738,1.25161l-0.63197,1.55901c0,0 -0.55901,1.11803 -1.67705,0.55902c-1.11803,-0.55901 -0.55902,-1.67705 -0.55902,-1.67705l0.36803,-0.44099c0.02387,-1.55253 0.08268,-3.39633 -1.42677,-3.26256c0,0 -1.23744,-0.17677 -1.06066,-1.41421c0.17677,-1.23744 1.41421,-1.06066 1.41421,-1.06066c0.81559,0.19778 1.81821,0.03727 2.44678,0.59333c0.27108,0.23981 0.48467,0.76344 0.64961,1.39656c3.62146,0.01229 7.50101,0.0239 11.05007,-0.48989l0.11776,-0.1306c0,0 1.11803,-0.55901 1.67705,0.55902z" fill="#ffffff" stroke="none" stroke-width="0.5"/><path d="M237.125,182.75001c-0.00001,0.25 -0.25001,0.24999 -0.25001,0.24999l-0.12956,0c-2.77677,-0.00007 -4.85041,-0.15014 -4.87043,-3.5c0,0 0,-0.25 0.25,-0.25c0.25,0 0.25,0.25 0.25,0.25c-0.02195,3.12737 1.85212,2.99993 4.37044,3l0.12956,0c0,0 0.25,0.00001 0.24999,0.25001z" fill="#ffffff" stroke="none" stroke-width="0.5"/><path d="M244.125,179.75016c-0.00016,0.25 -0.25016,0.24984 -0.25016,0.24984l-0.41496,-0.00026c-2.80196,-0.00441 -5.16025,-0.78715 -4.07206,-4.0788c0,0 0.07906,-0.23717 0.31623,-0.15811c0.23717,0.07906 0.15811,0.31623 0.15811,0.31623c-0.99229,2.94997 1.13009,3.41681 3.5985,3.42068l0.41448,0.00026c0,0 0.25,0.00016 0.24984,0.25016z" fill="#ffffff" stroke="none" stroke-width="0.5"/></g></g></svg>